 <svg  version="1.0" xmlns="http://www.w3.org/2000/svg"  width="4320.000000pt" height="840.000000pt" viewBox="0 0 1440.000000 250.000000"  preserveAspectRatio="xMidYMid meet">  <g transform="translate(50.000000,840.000000) scale(0.100000,-0.100000)" fill="#ffffff" stroke="none"> <path d="M1040 8114 c-97 -74 -93 -68 -250 -409 -18 -38 -50 -108 -72 -155 -22 -47 -53 -112 -68 -145 -15 -33 -47 -100 -70 -150 -87 -186 -113 -242 -140 -300 -15 -33 -47 -100 -70 -150 -88 -187 -113 -242 -140 -300 -15 -33 -46 -98 -68 -145 -32 -68 -38 -88 -28 -98 12 -12 93 -46 151 -62 17 -5 75 -25 130 -44 55 -20 103 -36 106 -36 4 0 30 48 59 108 96 197 221 455 297 612 95 197 88 185 103 185 13 0 16 -4 43 -68 9 -20 24 -54 33 -75 9 -20 22 -52 30 -70 7 -18 20 -47 28 -65 8 -17 22 -53 33 -79 10 -27 23 -48 29 -48 10 0 109 102 243 249 86 94 113 121 121 121 15 0 12 -166 -5 -310 -7 -69 -15 -171 -17 -228 -3 -115 -4 -114 72 -132 25 -5 77 -19 115 -30 98 -29 151 -35 160 -19 5 7 12 29 16 48 5 20 16 65 25 100 l18 64 -55 49 c-30 26 -86 76 -126 110 -42 36 -77 75 -83 92 -6 17 -15 82 -20 146 -5 63 -14 140 -19 170 -5 30 -12 98 -16 151 l-6 96 87 79 c85 78 160 146 238 216 l40 35 -12 79 c-7 44 -12 103 -12 132 0 63 -30 102 -78 102 -16 0 -48 6 -70 14 -22 8 -63 16 -91 18 l-52 3 -21 -50 c-11 -27 -26 -66 -33 -85 -7 -19 -27 -71 -45 -115 -18 -44 -39 -98 -47 -120 -8 -22 -21 -53 -28 -70 -13 -31 -34 -85 -61 -157 -23 -63 -49 -110 -60 -109 -5 0 -10 13 -12 28 -1 15 -8 53 -16 83 -8 30 -22 91 -31 135 -9 44 -23 107 -30 140 -8 33 -21 96 -30 140 -9 44 -23 105 -30 135 -17 70 -44 199 -48 225 -4 35 -30 26 -117 -41z"/> <path d="M12053 8097 c-18 -23 -79 -98 -136 -166 l-104 -123 -7 -507 c-4 -278 -11 -621 -15 -761 -5 -140 -6 -260 -4 -266 6 -15 394 -60 415 -47 10 5 1 216 -19 431 -16 179 -13 202 24 202 9 0 38 7 67 16 195 61 181 63 237 -33 24 -43 47 -84 52 -93 4 -8 16 -28 27 -45 11 -16 23 -37 27 -45 4 -8 26 -46 48 -85 23 -38 44 -77 48 -85 4 -8 16 -28 27 -45 11 -16 23 -37 27 -45 4 -8 32 -58 63 -110 31 -52 59 -102 63 -110 4 -8 16 -28 27 -45 11 -16 23 -37 26 -45 4 -8 15 -24 26 -36 17 -19 22 -20 66 -8 26 7 63 18 82 25 19 6 53 17 75 24 155 48 156 48 150 72 -4 19 -48 91 -104 173 -10 14 -20 32 -24 40 -4 8 -15 27 -25 42 -9 14 -44 70 -77 123 -33 53 -67 107 -75 120 -8 13 -35 56 -60 95 -25 39 -53 83 -62 98 -10 15 -22 36 -28 47 -5 11 -33 54 -60 95 -27 41 -55 84 -60 95 -6 11 -18 32 -28 47 -9 15 -37 59 -62 98 -25 39 -53 83 -62 98 -10 15 -22 36 -28 47 -5 11 -33 54 -60 95 -27 41 -55 84 -60 95 -6 11 -18 32 -28 47 -9 15 -37 59 -62 98 -25 39 -53 83 -62 98 -10 15 -22 36 -28 47 -5 11 -33 54 -60 95 -27 41 -55 84 -60 95 -49 96 -71 104 -117 42z m133 -644 c15 -27 61 -99 102 -162 59 -89 73 -117 65 -130 -14 -22 -160 -94 -177 -88 -14 6 -29 129 -41 330 -6 114 6 127 51 50z"/> <path d="M7265 8049 c-4 -5 -17 -15 -28 -20 -12 -5 -35 -18 -52 -29 -16 -10 -41 -25 -55 -33 -14 -7 -81 -46 -149 -87 l-123 -73 5 -71 c2 -39 10 -105 16 -146 7 -41 18 -115 26 -165 7 -49 19 -124 25 -165 7 -41 16 -106 20 -145 4 -38 13 -104 20 -145 6 -41 18 -120 26 -175 8 -55 21 -140 29 -190 8 -49 16 -114 19 -144 6 -64 19 -81 60 -81 17 -1 58 -7 91 -15 65 -16 131 -19 138 -7 3 4 -2 41 -9 82 -7 41 -20 122 -29 180 -9 58 -22 139 -29 180 -8 41 -10 79 -6 83 4 5 27 -3 51 -17 24 -14 59 -33 78 -42 l33 -17 57 59 c32 32 104 111 161 174 57 63 119 131 137 150 37 39 37 41 22 124 -13 76 -33 192 -54 321 -9 55 -21 124 -26 152 l-10 53 -161 95 c-88 52 -164 95 -168 95 -4 0 -13 7 -20 15 -14 17 -85 20 -95 4z m137 -440 c9 -5 19 -23 23 -41 12 -63 37 -174 53 -231 12 -45 13 -63 4 -75 -6 -10 -26 -41 -43 -70 -17 -30 -37 -56 -45 -59 -7 -2 -42 19 -77 49 -56 46 -67 60 -81 109 -9 30 -16 66 -16 80 0 13 -6 44 -14 69 -7 25 -17 78 -21 119 l-7 74 103 -8 c57 -4 111 -11 121 -16z"/> <path d="M2538 8031 c-10 -3 -33 -27 -50 -52 -36 -50 -91 -125 -111 -149 -7 -8 -61 -80 -121 -159 -97 -128 -110 -150 -114 -193 -5 -58 -16 -60 -79 -18 -53 36 -72 37 -98 8 -10 -13 -62 -68 -115 -123 l-97 -100 4 -80 c2 -44 11 -129 19 -190 8 -60 14 -123 14 -141 0 -26 13 -43 78 -105 128 -122 111 -113 166 -83 39 22 50 24 57 13 10 -17 29 -102 29 -133 0 -22 17 -40 224 -230 17 -15 57 -50 89 -77 57 -48 58 -49 115 -44 130 12 409 25 520 25 l119 0 34 37 c19 21 56 65 83 98 27 33 54 65 61 70 6 6 48 54 93 108 45 54 98 115 117 135 l34 37 62 -33 c72 -37 66 -39 160 50 63 59 70 75 134 318 9 36 23 83 30 105 18 55 27 118 18 131 -5 6 -51 58 -104 115 -53 57 -109 119 -124 137 -15 17 -31 32 -36 32 -6 0 -40 -14 -76 -31 l-67 -31 -23 28 c-13 16 -23 36 -23 45 0 8 -7 24 -15 35 -8 10 -15 25 -15 31 0 7 -13 42 -30 76 -16 35 -30 68 -30 74 0 5 -10 19 -22 30 -22 19 -42 29 -173 88 -33 15 -87 40 -120 55 -203 95 -169 87 -395 93 -113 3 -213 2 -222 -2z m83 -465 c181 -132 230 -166 237 -166 4 1 32 21 62 46 30 24 90 72 134 105 l78 62 119 -119 c65 -65 119 -125 119 -133 0 -8 -11 -28 -23 -45 -13 -17 -26 -35 -28 -41 -2 -5 -35 -56 -72 -113 -66 -99 -69 -104 -57 -135 15 -38 66 -151 86 -189 27 -51 20 -64 -71 -120 -47 -29 -98 -61 -113 -70 -15 -10 -36 -22 -47 -28 -11 -6 -32 -18 -47 -28 -127 -82 -170 -103 -198 -97 -16 3 -34 13 -41 21 -6 8 -15 14 -19 14 -7 0 -189 103 -230 130 -8 6 -24 14 -35 19 -11 5 -28 17 -37 28 -16 18 -13 26 59 170 l75 152 -22 28 c-24 30 -145 167 -171 192 -9 9 -23 27 -32 41 -16 25 -15 28 39 110 30 47 74 116 96 153 30 50 46 67 58 64 10 -2 46 -25 81 -51z"/> <path d="M4100 7956 c-52 -18 -115 -41 -140 -50 -25 -10 -55 -20 -67 -23 -40 -9 -45 -26 -41 -142 l3 -109 35 -35 c80 -79 234 -239 265 -277 33 -40 33 -41 20 -83 -12 -39 -25 -87 -62 -227 -8 -30 -22 -80 -30 -110 -8 -30 -21 -77 -28 -105 -43 -159 -46 -165 -118 -223 -61 -49 -68 -58 -62 -81 4 -14 11 -53 15 -86 5 -33 14 -77 20 -99 11 -36 13 -38 43 -31 18 4 50 11 72 15 37 7 77 16 176 41 21 5 39 15 42 22 2 7 -1 75 -9 152 -7 77 -14 178 -14 225 -1 47 -7 141 -14 210 -8 69 -10 132 -6 140 7 12 10 12 15 -5 4 -11 13 -33 20 -50 7 -16 21 -50 30 -75 10 -25 23 -58 30 -75 7 -16 21 -50 30 -75 9 -25 23 -58 30 -75 7 -16 20 -49 29 -72 9 -24 23 -62 32 -85 9 -24 22 -56 29 -73 20 -47 43 -108 50 -133 4 -12 16 -29 28 -36 23 -14 289 -41 342 -35 l30 4 6 250 c5 183 12 1197 9 1323 0 16 -43 15 -87 -3 -19 -8 -46 -15 -58 -15 -12 0 -39 -7 -58 -15 -20 -8 -48 -15 -61 -15 -14 0 -29 -8 -34 -17 -10 -20 1 -348 17 -533 14 -149 14 -280 1 -280 -6 0 -13 8 -16 18 -3 9 -19 51 -36 92 -28 70 -36 89 -72 173 -8 17 -35 84 -61 147 -26 63 -53 130 -61 148 -36 83 -44 102 -74 177 -18 44 -38 94 -46 110 -7 17 -23 54 -36 83 -13 28 -25 52 -28 51 -3 0 -48 -15 -100 -33z"/> <path d="M5275 7980 c-16 -4 -53 -8 -82 -9 -30 -1 -58 -7 -66 -15 -20 -20 -26 -109 -37 -503 -5 -186 -14 -417 -19 -513 -15 -264 -18 -587 -5 -600 5 -5 37 -17 70 -26 32 -9 75 -20 94 -26 70 -19 65 -38 67 232 1 135 2 253 2 263 1 24 18 21 26 -5 4 -13 13 -38 21 -55 24 -56 40 -93 119 -283 115 -276 114 -275 153 -225 11 14 57 64 101 112 45 47 81 90 81 94 0 5 -10 26 -23 47 -13 20 -27 44 -30 52 -4 8 -16 29 -26 45 -11 17 -32 53 -47 80 -48 87 -55 99 -74 130 -37 60 -70 125 -70 139 0 19 15 53 40 91 11 17 23 37 27 45 4 8 39 69 78 135 39 66 74 127 78 135 4 8 16 29 27 45 11 17 24 39 30 50 6 11 19 34 30 50 11 17 23 37 27 45 4 8 19 36 35 61 15 25 28 58 28 72 0 13 -19 51 -42 84 -24 32 -61 84 -82 116 -37 55 -40 57 -58 40 -10 -9 -33 -42 -51 -72 -18 -31 -37 -65 -44 -76 -7 -11 -17 -29 -23 -40 -6 -11 -19 -33 -30 -50 -11 -16 -24 -39 -30 -50 -6 -11 -19 -33 -30 -50 -11 -16 -24 -39 -30 -50 -6 -11 -16 -29 -23 -40 -7 -11 -34 -58 -61 -103 -26 -46 -53 -81 -60 -79 -8 3 -11 104 -11 358 l0 354 -25 2 c-14 0 -38 -2 -55 -7z"/> <path d="M8130 7969 c-30 -11 -68 -24 -85 -29 -39 -11 -96 -31 -115 -40 -19 -9 -20 -196 -2 -460 7 -102 17 -255 23 -340 6 -85 14 -238 19 -340 10 -218 28 -412 38 -422 4 -4 25 -3 47 3 267 71 260 68 259 109 0 19 -4 148 -8 287 -8 246 -7 252 12 262 12 6 69 11 129 12 59 0 144 4 188 8 43 5 86 6 93 3 12 -4 14 -23 8 -101 -3 -53 -11 -213 -16 -356 -6 -143 -12 -269 -13 -280 -1 -12 7 -24 24 -32 21 -10 133 -26 259 -36 l25 -2 3 120 c2 66 -4 244 -13 396 -8 153 -15 342 -16 420 0 79 -8 286 -17 459 l-17 315 -25 -1 c-112 -6 -234 -23 -245 -35 -15 -15 -12 -67 20 -319 8 -63 15 -140 15 -170 l0 -56 -122 -17 c-68 -10 -172 -25 -231 -34 -64 -9 -111 -12 -116 -7 -10 10 -41 458 -41 586 0 84 -5 119 -19 117 -3 0 -31 -9 -61 -20z"/> <path d="M10742 7970 c-18 -11 -56 -33 -83 -48 -28 -15 -58 -31 -67 -37 -9 -5 -49 -28 -87 -50 -39 -22 -78 -44 -87 -50 -9 -5 -42 -23 -73 -40 -37 -20 -58 -38 -62 -53 -8 -32 3 -261 38 -817 6 -93 13 -240 15 -325 3 -85 7 -164 9 -176 3 -14 20 -25 58 -37 30 -9 62 -17 72 -17 10 0 41 -6 69 -14 89 -25 189 -46 246 -51 61 -7 34 -23 255 155 33 27 84 67 113 89 l52 41 0 200 c0 199 0 200 -22 204 -13 2 -50 9 -83 16 -33 6 -77 14 -97 17 -21 3 -38 10 -38 15 0 9 96 137 206 276 37 47 43 89 24 167 -6 22 -15 87 -20 144 -6 57 -17 112 -24 122 -17 25 -361 289 -375 289 -3 0 -21 -9 -39 -20z m-67 -405 c39 -8 87 -17 107 -20 62 -9 68 -22 68 -145 l0 -109 -95 -56 c-52 -31 -99 -54 -103 -51 -15 9 -78 357 -69 380 8 20 6 20 92 1z m83 -751 c18 -8 36 -14 41 -14 5 0 29 -9 55 -21 43 -18 45 -22 35 -42 -7 -12 -18 -27 -24 -34 -7 -6 -43 -53 -81 -102 -80 -106 -100 -114 -109 -43 -3 26 -12 79 -19 117 -8 39 -17 93 -21 122 -6 60 2 67 55 45 19 -8 50 -21 68 -28z"/> <path d="M11585 7968 c-27 -11 -63 -23 -80 -28 -16 -4 -42 -13 -56 -20 -32 -14 -33 -24 -49 -315 -5 -110 -15 -283 -21 -385 -6 -102 -14 -277 -19 -390 -5 -113 -14 -288 -21 -390 -7 -102 -10 -193 -6 -202 6 -17 25 -23 152 -52 137 -31 144 -31 149 -5 8 38 30 1774 23 1792 -8 20 -9 20 -72 -5z"/> <path d="M9540 7953 c-127 -15 -137 -19 -160 -68 -6 -11 -19 -33 -30 -50 -11 -16 -24 -39 -30 -50 -6 -11 -19 -33 -30 -50 -11 -16 -24 -39 -29 -50 -5 -11 -21 -37 -35 -58 -14 -21 -26 -40 -26 -42 0 -2 -20 -38 -45 -78 -53 -88 -55 -107 -31 -357 9 -85 20 -200 25 -256 9 -107 13 -117 111 -299 26 -49 67 -126 90 -171 23 -44 50 -91 60 -104 l18 -24 154 12 c84 7 194 12 244 12 56 0 97 5 107 13 16 11 57 87 180 332 l56 110 -9 234 c-5 128 -12 252 -15 275 -3 22 -9 128 -13 233 l-7 193 -135 129 -135 130 -95 -1 c-52 0 -151 -7 -220 -15z m176 -494 c47 -23 90 -51 96 -62 6 -11 14 -50 19 -86 4 -36 12 -91 18 -121 39 -206 39 -214 -15 -243 -12 -6 -75 -47 -139 -90 -65 -44 -120 -75 -124 -70 -7 8 -26 52 -56 133 -39 105 -48 127 -61 158 -8 18 -14 40 -14 49 0 9 24 66 54 127 30 61 66 138 82 171 24 52 39 74 52 75 2 0 42 -19 88 -41z"/> <path d="M6217 7933 c-3 -5 -30 -68 -62 -142 -31 -74 -60 -142 -65 -150 -4 -9 -14 -32 -23 -51 -8 -19 -29 -65 -46 -103 -17 -37 -31 -69 -31 -72 0 -3 -14 -35 -31 -72 -16 -38 -37 -84 -46 -103 -8 -19 -19 -42 -23 -51 -4 -8 -34 -76 -65 -150 -31 -74 -61 -138 -66 -144 -16 -17 -9 -55 18 -98 15 -23 32 -49 38 -58 216 -348 225 -359 238 -306 5 21 13 41 57 157 12 30 25 69 30 85 5 17 18 55 30 85 38 99 51 135 61 168 12 39 36 41 119 12 30 -11 63 -19 72 -20 38 0 48 -27 48 -128 0 -189 22 -577 35 -590 11 -13 66 0 185 43 19 7 62 21 95 30 107 31 110 33 107 96 -1 30 -9 86 -17 124 -8 39 -21 115 -30 170 -9 55 -23 134 -30 175 -8 41 -21 120 -30 175 -9 55 -23 134 -30 175 -8 41 -21 120 -30 175 -17 102 -31 186 -59 335 -9 47 -16 97 -16 112 0 33 -36 55 -108 67 -52 9 -121 25 -198 47 -55 15 -120 19 -127 7z m217 -404 c28 -13 34 -46 38 -244 l3 -120 -50 -3 c-27 -1 -68 1 -90 5 -36 8 -40 12 -43 43 -2 19 3 60 11 90 23 86 39 152 45 185 8 54 34 67 86 44z"/> </g> </svg> 